HIERARCHY
ROOT Hips
{
	OFFSET 0.000000 83.214638 0.000000
	CHANNELS 6 Xposition Yposition Zposition Xrotation Yrotation Zrotation
	JOINT Pelvis
	{
		OFFSET 0.000000 0.000000 0.000000
		CHANNELS 3 Xrotation Yrotation Zrotation
		JOINT LeftUpLeg
		{
			OFFSET 8.479700 -4.795502 -0.379100
			CHANNELS 3 Xrotation Yrotation Zrotation
			JOINT LeftLeg
			{
				OFFSET 0.024144 -32.555107 0.112900
				CHANNELS 3 Xrotation Yrotation Zrotation
				JOINT LeftFoot
				{
					OFFSET -0.024144 -32.638630 -3.012600
					CHANNELS 3 Xrotation Yrotation Zrotation
					JOINT LeftToeBase
					{
						OFFSET 0.970200 -13.225400 11.864200
						CHANNELS 3 Xrotation Yrotation Zrotation
						End Site
						{
							OFFSET 0.000000 12.319262 0.000000
						}
					}
					JOINT LFootTongue
					{
						OFFSET 1.142400 -1.059800 6.665200
						CHANNELS 3 Xrotation Yrotation Zrotation
						End Site
						{
							OFFSET 0.000000 12.319262 0.000000
						}
					}
				}
				JOINT LeftPantLeg
				{
					OFFSET 0.918482 -16.533964 -2.284700
					CHANNELS 3 Xrotation Yrotation Zrotation
					End Site
					{
						OFFSET 0.350399 24.744368 0.000000
					}
				}
			}
		}
		JOINT RightUpLeg
		{
			OFFSET -8.479700 -4.795502 -0.379100
			CHANNELS 3 Xrotation Yrotation Zrotation
			JOINT RightLeg
			{
				OFFSET -0.023144 -32.555092 0.112900
				CHANNELS 3 Xrotation Yrotation Zrotation
				JOINT RightFoot
				{
					OFFSET 0.023144 -32.638641 -3.012700
					CHANNELS 3 Xrotation Yrotation Zrotation
					JOINT RightToeBase
					{
						OFFSET -0.970200 -13.225400 11.864200
						CHANNELS 3 Xrotation Yrotation Zrotation
						End Site
						{
							OFFSET 0.000000 12.319244 0.000000
						}
					}
					JOINT RFootTongue
					{
						OFFSET -1.142200 -1.059800 6.665200
						CHANNELS 3 Xrotation Yrotation Zrotation
						End Site
						{
							OFFSET 0.000000 12.319243 0.000000
						}
					}
				}
				JOINT RightPantLeg
				{
					OFFSET -0.919482 -16.533978 -2.284800
					CHANNELS 3 Xrotation Yrotation Zrotation
					End Site
					{
						OFFSET -0.350400 24.744419 0.000000
					}
				}
			}
		}
	}
	JOINT Spine
	{
		OFFSET 0.000000 7.722000 1.166200
		CHANNELS 3 Xrotation Yrotation Zrotation
		JOINT Spine1
		{
			OFFSET 0.000000 12.024101 0.248800
			CHANNELS 3 Xrotation Yrotation Zrotation
			JOINT Spine2
			{
				OFFSET 0.000000 11.502998 -0.491200
				CHANNELS 3 Xrotation Yrotation Zrotation
				JOINT Neck
				{
					OFFSET 0.000000 18.430702 -3.123100
					CHANNELS 3 Xrotation Yrotation Zrotation
					JOINT Head
					{
						OFFSET 0.000000 9.051102 1.034000
						CHANNELS 3 Xrotation Yrotation Zrotation
						JOINT HairB
						{
							OFFSET 0.208400 24.786102 24.822300
							CHANNELS 3 Xrotation Yrotation Zrotation
							End Site
							{
								OFFSET 0.000000 32.263779 0.000000
							}
						}
						JOINT HairA
						{
							OFFSET -7.081100 24.428299 23.196600
							CHANNELS 3 Xrotation Yrotation Zrotation
							End Site
							{
								OFFSET 0.000000 32.263779 0.000000
							}
						}
						JOINT Hat
						{
							OFFSET 16.728800 15.048294 -15.439601
							CHANNELS 3 Xrotation Yrotation Zrotation
							End Site
							{
								OFFSET 0.000000 32.263779 0.000000
							}
						}
					}
				}
				JOINT LeftShoulder
				{
					OFFSET 6.197800 13.665199 -4.064700
					CHANNELS 3 Xrotation Yrotation Zrotation
					JOINT LeftArm
					{
						OFFSET 7.778100 -0.187103 -1.709300
						CHANNELS 3 Xrotation Yrotation Zrotation
						JOINT LeftForeArm
						{
							OFFSET 22.049376 0.000000 0.000000
							CHANNELS 3 Xrotation Yrotation Zrotation
							JOINT LeftHand
							{
								OFFSET 23.009392 0.000000 0.000000
								CHANNELS 3 Xrotation Yrotation Zrotation
								JOINT LeftHandThumb1
								{
									OFFSET 3.507191 -2.063065 3.133727
									CHANNELS 3 Xrotation Yrotation Zrotation
									JOINT LeftHandThumb2
									{
										OFFSET 3.101337 -1.790558 1.790558
										CHANNELS 3 Xrotation Yrotation Zrotation
										JOINT LeftHandThumb3
										{
											OFFSET 3.058640 -1.765907 1.765906
											CHANNELS 3 Xrotation Yrotation Zrotation
											End Site
											{
												OFFSET -0.415260 3.926476 -0.049563
											}
										}
									}
								}
								JOINT LeftHandIndex1
								{
									OFFSET 11.334419 -0.901459 3.706815
									CHANNELS 3 Xrotation Yrotation Zrotation
									JOINT LeftHandIndex2
									{
										OFFSET 3.283112 0.000000 0.000000
										CHANNELS 3 Xrotation Yrotation Zrotation
										JOINT LeftHandIndex3
										{
											OFFSET 3.323853 0.000000 0.000000
											CHANNELS 3 Xrotation Yrotation Zrotation
											End Site
											{
												OFFSET -1.135597 3.097809 0.402452
											}
										}
									}
								}
								JOINT LeftHandMiddle1
								{
									OFFSET 11.335861 0.000000 0.000000
									CHANNELS 3 Xrotation Yrotation Zrotation
									JOINT LeftHandMiddle2
									{
										OFFSET 3.410492 0.000000 0.000000
										CHANNELS 3 Xrotation Yrotation Zrotation
										JOINT LeftHandMiddle3
										{
											OFFSET 3.312172 0.000000 0.000000
											CHANNELS 3 Xrotation Yrotation Zrotation
											End Site
											{
												OFFSET -1.150200 3.080154 0.400270
											}
										}
									}
								}
								JOINT LeftHandRing1
								{
									OFFSET 11.514786 -0.013176 -3.003090
									CHANNELS 3 Xrotation Yrotation Zrotation
									JOINT LeftHandRing2
									{
										OFFSET 3.053307 0.000000 0.000000
										CHANNELS 3 Xrotation Yrotation Zrotation
										JOINT LeftHandRing3
										{
											OFFSET 3.295807 0.000000 0.000000
											CHANNELS 3 Xrotation Yrotation Zrotation
											End Site
											{
												OFFSET -1.281006 3.013344 0.375733
											}
										}
									}
								}
								JOINT LeftHandPinky1
								{
									OFFSET 10.518692 -0.960396 -5.730441
									CHANNELS 3 Xrotation Yrotation Zrotation
									JOINT LeftHandPinky2
									{
										OFFSET 2.861649 0.000000 0.000000
										CHANNELS 3 Xrotation Yrotation Zrotation
										JOINT LeftHandPinky3
										{
											OFFSET 2.863380 0.000000 0.000000
											CHANNELS 3 Xrotation Yrotation Zrotation
											End Site
											{
												OFFSET -0.843597 2.711159 0.369971
											}
										}
									}
								}
							}
							JOINT LSleeve
							{
								OFFSET 6.676277 -0.344902 -1.011730
								CHANNELS 3 Xrotation Yrotation Zrotation
								End Site
								{
									OFFSET 0.000000 14.885353 0.000000
								}
							}
						}
					}
				}
				JOINT RightShoulder
				{
					OFFSET -6.197800 13.665199 -4.064700
					CHANNELS 3 Xrotation Yrotation Zrotation
					JOINT RightArm
					{
						OFFSET -7.778100 -0.187103 -1.709300
						CHANNELS 3 Xrotation Yrotation Zrotation
						JOINT RightForeArm
						{
							OFFSET -22.049376 0.000000 0.000000
							CHANNELS 3 Xrotation Yrotation Zrotation
							JOINT RightHand
							{
								OFFSET -23.009392 0.000000 0.000000
								CHANNELS 3 Xrotation Yrotation Zrotation
								JOINT RightHandThumb1
								{
									OFFSET -3.507191 -2.063065 3.133727
									CHANNELS 3 Xrotation Yrotation Zrotation
									JOINT RightHandThumb2
									{
										OFFSET -3.101337 -1.790558 1.790558
										CHANNELS 3 Xrotation Yrotation Zrotation
										JOINT RightHandThumb3
										{
											OFFSET -3.058640 -1.765907 1.765906
											CHANNELS 3 Xrotation Yrotation Zrotation
											End Site
											{
												OFFSET 0.415260 3.926476 -0.049563
											}
										}
									}
								}
								JOINT RightHandIndex1
								{
									OFFSET -11.334419 -0.901459 3.706815
									CHANNELS 3 Xrotation Yrotation Zrotation
									JOINT RightHandIndex2
									{
										OFFSET -3.283112 0.000000 0.000000
										CHANNELS 3 Xrotation Yrotation Zrotation
										JOINT RightHandIndex3
										{
											OFFSET -3.323853 0.000000 0.000000
											CHANNELS 3 Xrotation Yrotation Zrotation
											End Site
											{
												OFFSET 1.135597 3.097809 0.402452
											}
										}
									}
								}
								JOINT RightHandMiddle1
								{
									OFFSET -11.335861 0.000000 0.000000
									CHANNELS 3 Xrotation Yrotation Zrotation
									JOINT RightHandMiddle2
									{
										OFFSET -3.410492 0.000000 0.000000
										CHANNELS 3 Xrotation Yrotation Zrotation
										JOINT RightHandMiddle3
										{
											OFFSET -3.312172 0.000000 0.000000
											CHANNELS 3 Xrotation Yrotation Zrotation
											End Site
											{
												OFFSET 1.150200 3.080154 0.400270
											}
										}
									}
								}
								JOINT RightHandRing1
								{
									OFFSET -11.514786 -0.013176 -3.003090
									CHANNELS 3 Xrotation Yrotation Zrotation
									JOINT RightHandRing2
									{
										OFFSET -3.053307 0.000000 0.000000
										CHANNELS 3 Xrotation Yrotation Zrotation
										JOINT RightHandRing3
										{
											OFFSET -3.295807 0.000000 0.000000
											CHANNELS 3 Xrotation Yrotation Zrotation
											End Site
											{
												OFFSET 1.281006 3.013344 0.375733
											}
										}
									}
								}
								JOINT RightHandPinky1
								{
									OFFSET -10.518692 -0.960396 -5.730441
									CHANNELS 3 Xrotation Yrotation Zrotation
									JOINT RightHandPinky2
									{
										OFFSET -2.861649 0.000000 0.000000
										CHANNELS 3 Xrotation Yrotation Zrotation
										JOINT RightHandPinky3
										{
											OFFSET -2.863380 0.000000 0.000000
											CHANNELS 3 Xrotation Yrotation Zrotation
											End Site
											{
												OFFSET 0.843597 2.711159 0.369971
											}
										}
									}
								}
							}
							JOINT RSleeve
							{
								OFFSET -6.676277 -0.344902 -1.011730
								CHANNELS 3 Xrotation Yrotation Zrotation
								End Site
								{
									OFFSET 0.000000 14.885353 0.000000
								}
							}
						}
					}
				}
				JOINT Backpack
				{
					OFFSET 0.000000 -2.471497 36.677502
					CHANNELS 3 Xrotation Yrotation Zrotation
					End Site
					{
						OFFSET 0.000000 20.427315 0.000000
					}
				}
				JOINT Hood
				{
					OFFSET 0.000000 18.754097 -10.431000
					CHANNELS 3 Xrotation Yrotation Zrotation
					JOINT Hood1
					{
						OFFSET 0.000000 -5.011002 -7.685901
						CHANNELS 3 Xrotation Yrotation Zrotation
						End Site
						{
							OFFSET 0.000000 9.175140 0.000000
						}
					}
				}
				JOINT LHoodieString
				{
					OFFSET 5.250500 16.397697 3.089900
					CHANNELS 3 Xrotation Yrotation Zrotation
					JOINT LHoodieString1
					{
						OFFSET 0.257700 -6.364304 3.694600
						CHANNELS 3 Xrotation Yrotation Zrotation
						JOINT LHoodieString2
						{
							OFFSET 0.000000 -9.643799 2.679100
							CHANNELS 3 Xrotation Yrotation Zrotation
							End Site
							{
								OFFSET 0.000000 10.009018 0.000000
							}
						}
					}
				}
				JOINT RHoodieString
				{
					OFFSET -5.250500 16.397697 3.089900
					CHANNELS 3 Xrotation Yrotation Zrotation
					JOINT RHoodieString1
					{
						OFFSET -0.257700 -6.364304 3.694600
						CHANNELS 3 Xrotation Yrotation Zrotation
						JOINT RHoodieString2
						{
							OFFSET 0.000000 -9.643799 2.679100
							CHANNELS 3 Xrotation Yrotation Zrotation
							End Site
							{
								OFFSET 0.000000 10.009018 0.000000
							}
						}
					}
				}
			}
			JOINT LBackpack_Strap
			{
				OFFSET 15.223200 -7.719803 -6.610900
				CHANNELS 3 Xrotation Yrotation Zrotation
				End Site
				{
					OFFSET 0.000000 16.040596 0.000000
				}
			}
			JOINT RBackpack_Strap
			{
				OFFSET -15.223000 -7.719803 -6.610900
				CHANNELS 3 Xrotation Yrotation Zrotation
				End Site
				{
					OFFSET 0.000000 16.040596 0.000000
				}
			}
		}
	}
	JOINT BoyFacialAnim_Joint
	{
		OFFSET 1.000000 -82.208099 -1.550900
		CHANNELS 3 Xrotation Yrotation Zrotation
		End Site
		{
			OFFSET 0.000000 30.012791 0.000000
		}
	}
}
MOTION
Frames: 5
Frame Time: 0.016667
-0.271841 70.610138 0.107373 -5.398748 -46.239377 -0.142887 -0.000000 -0.000000 0.000000 -32.843497 7.601280 17.499517 59.220404 -6.566084 4.270680 -23.771702 -8.053166 -14.613721 0.000000 0.000000 -0.000000 0.000000 0.000000 -0.000000 -0.000000 -0.000000 0.000000 -25.065071 -10.545473 -28.270329 58.419878 -9.124094 -7.671457 -25.367428 -6.319695 22.025647 -0.000000 0.000000 0.000000 -0.000000 0.000000 0.000000 -0.000001 0.000001 0.000001 9.464575 7.182614 -1.715470 2.187715 0.989897 -0.915630 2.202828 0.982777 -0.894154 0.084656 13.220553 4.538682 8.920924 20.138147 -4.130236 0.000001 -0.000000 -0.000000 0.000001 -0.000000 -0.000000 0.000001 -0.000000 -0.000000 1.117180 3.546345 -8.633310 -53.487010 4.935511 -51.503004 0.000048 -106.358073 0.000066 1.988609 -7.706158 -15.869253 -6.141218 -11.690802 -6.761707 9.914141 42.595519 3.409861 0.000001 -0.000000 0.000002 0.255313 3.378230 -45.814334 5.654089 5.847771 -88.067441 -0.000000 0.000001 -0.000005 -0.461475 3.841594 -39.722690 6.450749 5.820359 -95.892871 0.000001 -0.000002 -0.000000 0.469727 4.966828 -39.799458 8.181031 5.368622 -113.502998 0.000002 -0.000003 -0.000003 -3.762428 9.063695 -45.253832 5.342537 5.829024 -85.005304 -0.000001 0.000001 0.000000 0.000000 0.000001 -0.000001 3.036129 13.027194 -5.371406 -48.713722 27.172832 83.457091 0.000112 105.988287 -0.000109 -8.345355 17.548103 8.775685 -7.341098 13.749660 7.412336 9.855798 -44.489086 -3.903248 0.000000 0.000001 -0.000001 -0.124372 -2.384799 45.108861 4.500593 -4.654552 88.071171 0.000001 -0.000004 0.000005 -0.761620 -2.932907 39.031048 5.133883 -4.632760 95.881635 -0.000002 0.000002 -0.000003 0.154764 -4.068821 39.122682 6.509721 -4.273609 113.462870 -0.000002 -0.000002 0.000000 -4.198880 -8.025518 44.637783 4.252930 -4.639652 85.014846 0.000003 -0.000001 -0.000002 0.000002 0.000004 -0.000002 0.000001 -0.000002 0.000000 0.000001 -0.000002 0.000000 0.000001 -0.000002 0.000000 0.000001 -0.000002 0.000000 0.000001 -0.000002 0.000000 0.000000 0.000002 -0.000001 0.000001 -0.000002 0.000000 0.000001 -0.000002 0.000000 0.000000 0.000002 -0.000001 0.000000 -0.000000 0.000000 0.000000 -0.000000 0.000000 -0.000000 -0.000000 0.000000 
-0.189716 70.343246 0.565451 -5.081477 -46.519005 0.076172 -0.000001 0.000002 0.000000 -33.300755 7.531359 17.276728 60.535557 -6.388409 4.180057 -24.554129 -7.574501 -14.242538 -0.000000 0.000002 -0.000000 -0.000000 0.000002 -0.000000 -0.000000 -0.000003 0.000003 -25.484541 -10.338489 -28.820024 58.873758 -8.317749 -7.618285 -25.530866 -6.685331 22.099770 -0.000000 -0.000001 0.000000 -0.000000 -0.000001 0.000000 -0.000001 0.000001 -0.000003 9.688126 7.317299 -2.028588 2.062173 1.010600 -0.893727 2.076816 1.004100 -0.874000 0.115997 13.237030 4.673037 8.696455 20.175030 -3.730637 0.000001 -0.000000 -0.000000 0.000001 -0.000000 -0.000000 0.000001 -0.000000 -0.000000 1.112658 3.581127 -8.635981 -53.210667 4.972775 -51.357231 -0.000056 -106.367765 -0.000058 2.411211 -7.507516 -16.196289 -6.141219 -11.690800 -6.761702 9.914143 42.595515 3.409875 -0.000004 -0.000000 0.000001 0.255311 3.378235 -45.814327 5.654092 5.847771 -88.067435 0.000001 0.000001 -0.000005 -0.461477 3.841596 -39.722683 6.450751 5.820360 -95.892871 0.000000 -0.000001 0.000002 0.469724 4.966830 -39.799451 8.181029 5.368626 -113.502998 -0.000001 -0.000000 -0.000002 -3.762428 9.063693 -45.253828 5.342542 5.829021 -85.005304 -0.000000 -0.000001 -0.000000 0.000001 0.000001 0.000000 3.105122 13.142778 -5.328001 -48.727440 27.290297 83.461524 0.000221 105.913701 -0.000216 -8.160903 17.583429 8.793054 -7.341100 13.749657 7.412333 9.855797 -44.489089 -3.903247 0.000001 0.000002 -0.000001 -0.124375 -2.384804 45.108861 4.500592 -4.654553 88.071171 -0.000001 -0.000001 0.000003 -0.761624 -2.932910 39.031048 5.133885 -4.632758 95.881635 0.000001 -0.000001 -0.000000 0.154762 -4.068821 39.122682 6.509721 -4.273610 113.462870 -0.000001 -0.000001 0.000000 -4.198882 -8.025516 44.637779 4.252934 -4.639650 85.014832 0.000000 -0.000002 0.000002 0.000000 -0.000003 -0.000000 0.000000 -0.000003 0.000000 0.000000 -0.000003 0.000000 0.000000 -0.000003 0.000000 0.000000 -0.000003 0.000000 0.000000 -0.000003 0.000001 -0.000000 -0.000001 0.000001 0.000000 -0.000003 0.000000 0.000000 -0.000003 0.000001 -0.000000 -0.000001 0.000001 0.000001 -0.000002 0.000000 0.000001 -0.000002 0.000000 -0.000001 0.000002 0.000000 
-0.099129 70.017265 1.055947 -4.839386 -46.894023 0.259794 0.000000 0.000001 0.000000 -33.859987 7.448244 17.132592 62.127722 -6.175263 4.057193 -25.265191 -7.236024 -13.966327 0.000000 0.000002 0.000000 0.000000 0.000002 -0.000000 0.000001 0.000000 0.000000 -25.996450 -10.133841 -29.457455 59.465116 -7.335743 -7.658959 -25.762840 -7.077247 22.165289 0.000000 -0.000001 0.000001 0.000000 -0.000001 0.000001 0.000001 -0.000002 -0.000004 9.975884 7.448888 -2.276051 1.916820 1.031760 -0.894297 1.931408 1.024999 -0.876844 0.148175 13.275055 4.803503 8.434756 20.259436 -3.299771 -0.000000 0.000001 -0.000000 -0.000000 0.000001 -0.000000 -0.000000 0.000001 -0.000000 1.110768 3.630403 -8.655380 -52.841769 5.112491 -51.141660 0.000148 -106.568047 0.000171 2.622638 -7.353733 -16.403710 -6.141216 -11.690804 -6.761700 9.914139 42.595515 3.409870 0.000000 0.000001 -0.000000 0.255313 3.378232 -45.814334 5.654092 5.847771 -88.067435 -0.000000 0.000002 -0.000003 -0.461474 3.841598 -39.722686 6.450750 5.820360 -95.892871 0.000001 0.000003 0.000001 0.469728 4.966826 -39.799454 8.181032 5.368629 -113.503004 -0.000002 0.000001 -0.000002 -3.762428 9.063694 -45.253828 5.342538 5.829021 -85.005311 -0.000003 0.000001 -0.000003 0.000000 0.000001 -0.000003 3.169172 13.274909 -5.296752 -48.735749 27.444498 83.446190 0.000058 105.845768 -0.000066 -7.984240 17.693509 8.782192 -7.341098 13.749662 7.412333 9.855796 -44.489089 -3.903246 -0.000001 -0.000001 -0.000001 -0.124374 -2.384799 45.108864 4.500593 -4.654549 88.071171 0.000000 -0.000001 0.000007 -0.761623 -2.932909 39.031048 5.133887 -4.632756 95.881629 -0.000001 -0.000001 -0.000000 0.154763 -4.068818 39.122682 6.509721 -4.273614 113.462877 -0.000000 0.000001 0.000004 -4.198881 -8.025517 44.637779 4.252934 -4.639651 85.014839 -0.000001 -0.000001 0.000002 0.000000 -0.000004 0.000003 0.000000 -0.000000 0.000001 0.000000 -0.000000 0.000001 0.000000 -0.000000 0.000001 0.000000 -0.000000 0.000001 0.000000 -0.000000 0.000001 -0.000000 0.000002 -0.000000 0.000000 -0.000000 0.000001 0.000000 -0.000000 0.000001 -0.000000 0.000002 -0.000000 -0.000000 0.000000 -0.000000 -0.000000 0.000000 -0.000000 0.000000 0.000001 0.000000 
0.005660 69.620171 1.593662 -4.723373 -47.343094 0.384853 -0.000000 -0.000002 0.000000 -34.602695 7.240436 17.142479 64.182106 -6.114460 3.914371 -25.805998 -6.914774 -14.335756 -0.000000 -0.000002 0.000000 -0.000000 -0.000002 -0.000000 -0.000000 0.000000 -0.000001 -26.542747 -9.897887 -30.200177 60.200994 -6.196689 -7.798726 -26.069760 -7.505293 22.257075 0.000000 -0.000001 -0.000000 0.000000 -0.000001 -0.000000 -0.000001 -0.000001 -0.000001 10.332998 7.577343 -2.450425 1.751585 1.053336 -0.915970 1.766520 1.045415 -0.901337 0.181824 13.330686 4.930964 8.143639 20.381262 -2.845093 -0.000000 0.000000 -0.000001 -0.000000 0.000000 -0.000001 -0.000000 0.000000 -0.000001 1.111786 3.693828 -8.692151 -52.361709 5.340840 -50.878318 0.000110 -106.890528 0.000113 2.654537 -7.266170 -16.480616 -6.141217 -11.690804 -6.761708 9.914144 42.595519 3.409866 -0.000000 0.000001 -0.000001 0.255314 3.378235 -45.814331 5.654092 5.847772 -88.067435 -0.000001 0.000000 -0.000002 -0.461476 3.841597 -39.722686 6.450748 5.820360 -95.892871 -0.000001 -0.000001 -0.000000 0.469725 4.966828 -39.799454 8.181031 5.368626 -113.502998 0.000001 0.000004 0.000000 -3.762427 9.063696 -45.253835 5.342540 5.829021 -85.005311 0.000000 -0.000001 -0.000004 -0.000000 -0.000003 -0.000002 3.224299 13.415400 -5.279437 -48.718165 27.637160 83.417565 0.000053 105.772262 -0.000052 -7.808815 17.876210 8.743107 -7.341098 13.749658 7.412331 9.855796 -44.489089 -3.903248 0.000001 0.000002 -0.000003 -0.124374 -2.384798 45.108861 4.500595 -4.654552 88.071184 -0.000001 0.000000 0.000004 -0.761619 -2.932905 39.031048 5.133884 -4.632755 95.881635 0.000002 -0.000001 0.000005 0.154764 -4.068815 39.122682 6.509718 -4.273610 113.462870 -0.000001 -0.000001 0.000002 -4.198881 -8.025512 44.637776 4.252934 -4.639650 85.014839 0.000000 -0.000001 0.000002 0.000001 -0.000000 0.000001 0.000000 -0.000001 0.000000 0.000000 -0.000001 0.000000 0.000000 -0.000001 0.000000 0.000000 -0.000001 0.000000 0.000000 -0.000001 0.000000 -0.000000 0.000002 -0.000000 0.000000 -0.000001 0.000000 0.000000 -0.000001 0.000000 -0.000000 0.000002 -0.000000 -0.000000 -0.000002 -0.000000 -0.000000 -0.000002 -0.000000 -0.000000 -0.000002 0.000000 
0.132985 69.141708 2.194282 -4.761221 -47.846230 0.431344 -0.000000 0.000003 -0.000000 -35.580170 6.902329 17.246967 66.765652 -6.139974 3.781258 -26.016479 -6.758857 -15.178154 -0.000000 0.000004 -0.000000 -0.000000 0.000004 -0.000000 0.000001 -0.000002 0.000003 -27.095866 -9.628975 -31.069468 61.077710 -4.892802 -8.049347 -26.450109 -7.974967 22.394512 0.000000 0.000001 -0.000000 0.000000 0.000001 -0.000000 -0.000002 0.000001 0.000001 10.900214 7.697411 -2.463140 1.532801 1.076090 -0.997167 1.549265 1.064464 -0.986854 0.226158 13.411170 5.018146 7.791675 20.556335 -2.405646 -0.000000 0.000000 0.000000 -0.000000 0.000000 0.000000 -0.000000 0.000000 0.000000 1.121900 3.790806 -8.776300 -51.604067 5.785272 -50.502887 0.000054 -107.535215 0.000041 2.241376 -7.304528 -16.202086 -6.141216 -11.690802 -6.761702 9.914140 42.595519 3.409858 0.000001 -0.000002 0.000001 0.255313 3.378231 -45.814334 5.654088 5.847771 -88.067435 -0.000003 0.000000 -0.000005 -0.461475 3.841598 -39.722679 6.450750 5.820358 -95.892871 -0.000002 0.000001 -0.000001 0.469727 4.966830 -39.799454 8.181029 5.368623 -113.502998 -0.000001 0.000002 -0.000002 -3.762426 9.063697 -45.253835 5.342538 5.829021 -85.005311 0.000001 -0.000001 -0.000002 -0.000000 0.000000 -0.000000 3.247805 13.568179 -5.304377 -48.562075 27.955836 83.361264 -0.000215 105.742018 0.000224 -7.584231 18.241960 8.612264 -7.341098 13.749659 7.412337 9.855802 -44.489086 -3.903248 0.000001 0.000002 -0.000002 -0.124375 -2.384802 45.108857 4.500592 -4.654549 88.071171 -0.000002 0.000002 0.000004 -0.761620 -2.932904 39.031048 5.133883 -4.632754 95.881635 -0.000000 0.000001 -0.000003 0.154763 -4.068819 39.122682 6.509720 -4.273612 113.462877 0.000001 0.000000 0.000002 -4.198881 -8.025515 44.637783 4.252935 -4.639648 85.014839 -0.000001 0.000002 0.000001 0.000002 0.000001 0.000001 0.000000 -0.000002 -0.000000 0.000000 -0.000002 -0.000000 0.000000 -0.000002 -0.000000 0.000000 -0.000002 -0.000000 0.000000 -0.000002 0.000001 -0.000000 0.000001 -0.000000 0.000000 -0.000002 -0.000000 0.000000 -0.000002 0.000001 -0.000000 0.000001 -0.000000 -0.000000 0.000001 -0.000000 -0.000000 0.000001 -0.000000 -0.000000 0.000003 -0.000000 
